<svg width="107" height="37" viewBox="0 0 107 37" fill="none" xmlns="http://www.w3.org/2000/svg">
<path d="M18.5 37C28.7173 37 37 28.7173 37 18.5C37 8.28273 28.7173 0 18.5 0C8.28273 0 0 8.28273 0 18.5C0 28.7173 8.28273 37 18.5 37Z" fill="#001532"/>
<mask id="mask0_447_125" style="mask-type:luminance" maskUnits="userSpaceOnUse" x="0" y="0" width="37" height="37">
<path d="M18.5 37C28.7173 37 37 28.7173 37 18.5C37 8.28273 28.7173 0 18.5 0C8.28273 0 0 8.28273 0 18.5C0 28.7173 8.28273 37 18.5 37Z" fill="white"/>
</mask>
<g mask="url(#mask0_447_125)">
<path d="M5.5957 25.5423L21.1097 37.0823L59.2668 39.4821L30.0271 12.4185V18.5882L27.2992 16.6346L22.223 12.4185L19.2012 17.3445L14.9527 13.7977L7.48256 13.3241L5.5957 25.5423Z" fill="#0241AB"/>
</g>
<path d="M16.452 27.848C15.3693 27.848 14.548 27.7827 13.988 27.652C13.4467 27.5213 13.176 27.4093 13.176 27.316C13.176 27.204 13.4187 27.148 13.904 27.148C14.0347 27.148 14.1653 27.148 14.296 27.148C14.4453 27.1667 14.6133 27.1853 14.8 27.204C14.9307 27.2227 15.0707 27.232 15.22 27.232C15.3693 27.2507 15.5187 27.26 15.668 27.26C16.5453 27.26 17.5627 27.1573 18.72 26.952C19.896 26.7467 21.1 26.4573 22.332 26.084C23.564 25.7107 24.74 25.2627 25.86 24.74C26.98 24.1987 27.9413 23.6107 28.744 22.976C29.5653 22.3227 30.116 21.6227 30.396 20.876C30.6387 20.2787 30.76 19.644 30.76 18.972C30.76 17.852 30.424 16.7787 29.752 15.752C29.08 14.7067 28.1467 13.7827 26.952 12.98C25.776 12.1773 24.404 11.552 22.836 11.104C21.268 10.656 19.5973 10.4507 17.824 10.488C15.8827 10.544 14.268 10.6653 12.98 10.852C11.7107 11.0387 10.684 11.2813 9.9 11.58C9.116 11.8787 8.49067 12.2147 8.024 12.588C7.576 12.9613 7.212 13.3533 6.932 13.764C6.67067 14.156 6.40933 14.5573 6.148 14.968C6.148 15.0053 6.176 15.1547 6.232 15.416C6.288 15.6587 6.40933 15.892 6.596 16.116C6.78267 16.34 7.072 16.452 7.464 16.452C7.83733 16.452 8.024 16.508 8.024 16.62C8.024 16.6947 7.968 16.76 7.856 16.816C7.744 16.872 7.62267 16.9 7.492 16.9C7.212 16.9 6.86667 16.872 6.456 16.816C6.04533 16.7413 5.63467 16.6573 5.224 16.564C4.81333 16.4707 4.45867 16.368 4.16 16.256C3.84267 16.144 3.64667 16.0413 3.572 15.948C3.49733 15.8547 3.432 15.724 3.376 15.556C3.30133 15.388 3.264 15.2107 3.264 15.024C3.264 14.6693 3.38533 14.2773 3.628 13.848C3.87067 13.4187 4.3 12.9893 4.916 12.56C5.532 12.1307 6.39067 11.7293 7.492 11.356C8.59333 10.964 9.984 10.6373 11.664 10.376C13.344 10.1147 15.388 9.956 17.796 9.9H18.664C20.792 9.9 22.6587 10.0867 24.264 10.46C25.888 10.8333 27.26 11.3373 28.38 11.972C29.5187 12.588 30.4427 13.2787 31.152 14.044C31.8613 14.7907 32.3747 15.556 32.692 16.34C33.028 17.124 33.196 17.852 33.196 18.524C33.196 19.0093 33.1213 19.4573 32.972 19.868C32.524 21.0253 31.908 22.0333 31.124 22.892C30.34 23.732 29.4533 24.4413 28.464 25.02C27.4933 25.5987 26.476 26.0653 25.412 26.42C24.348 26.7747 23.312 27.0453 22.304 27.232C21.296 27.4373 20.372 27.5773 19.532 27.652C18.692 27.7453 18.0107 27.8013 17.488 27.82C17.3013 27.8387 17.1147 27.848 16.928 27.848C16.76 27.848 16.6013 27.848 16.452 27.848ZM10.88 28.436C10.7307 28.436 10.5533 28.3053 10.348 28.044C10.1427 27.8013 9.96533 27.316 9.816 26.588C9.79733 26.476 9.77867 26.3547 9.76 26.224C9.76 26.112 9.76 25.9907 9.76 25.86C9.76 25.2253 9.844 24.4787 10.012 23.62C10.1987 22.7427 10.4413 21.828 10.74 20.876C11.0387 19.9053 11.3653 18.9533 11.72 18.02C12.0747 17.0867 12.4387 16.228 12.812 15.444C13.1853 14.66 13.5213 14.0253 13.82 13.54C14.0813 13.1107 14.464 12.812 14.968 12.644C15.472 12.476 15.948 12.392 16.396 12.392C16.8253 12.392 17.18 12.4573 17.46 12.588C17.74 12.7 17.8147 12.8307 17.684 12.98C17.068 13.7267 16.4333 14.632 15.78 15.696C15.1453 16.76 14.5387 17.88 13.96 19.056C13.3813 20.232 12.868 21.408 12.42 22.584C11.9907 23.7413 11.6547 24.8053 11.412 25.776C11.188 26.7467 11.1133 27.5493 11.188 28.184C11.188 28.352 11.0853 28.436 10.88 28.436Z" fill="white"/>
<path d="M45.0929 26.812C45.0929 27.036 44.9903 26.9987 44.7849 26.7C44.5983 26.42 44.4116 25.888 44.2249 25.104C44.1876 24.936 44.1596 24.7587 44.1409 24.572C44.1223 24.3667 44.1129 24.1613 44.1129 23.956C44.1129 23.1347 44.2156 22.192 44.4209 21.128C44.6263 20.0453 44.8783 18.9253 45.1769 17.768C45.4943 16.592 45.8023 15.4533 46.1009 14.352C46.3996 13.2507 46.6516 12.2707 46.8569 11.412C47.0623 10.5347 47.1649 9.872 47.1649 9.424C47.1649 9.2 47.1463 9.05067 47.1089 8.976C47.0716 8.90133 47.0529 8.836 47.0529 8.78C47.0529 8.59333 47.2023 8.5 47.5009 8.5C47.8183 8.5 48.2103 8.62133 48.6769 8.864C49.1436 9.088 49.5449 9.424 49.8809 9.872C50.2169 10.32 50.3476 10.852 50.2729 11.468C50.2729 11.524 50.2636 11.58 50.2449 11.636C50.2449 11.692 50.2356 11.7573 50.2169 11.832C50.7956 12.448 51.3183 13.176 51.7849 14.016C52.2516 14.856 52.7369 15.7427 53.2409 16.676C53.7636 17.5907 54.3609 18.5053 55.0329 19.42C55.0329 19.4573 55.1356 19.6253 55.3409 19.924C55.5649 20.204 55.8449 20.5587 56.1809 20.988C56.5169 21.3987 56.8716 21.828 57.2449 22.276C57.6369 22.724 57.9823 23.1347 58.2809 23.508V23.228C58.3183 22.9293 58.3929 22.388 58.5049 21.604C58.6356 20.82 58.7849 19.9053 58.9529 18.86C59.1396 17.796 59.3356 16.704 59.5409 15.584C59.7463 14.464 59.9516 13.4093 60.1569 12.42C60.3623 11.412 60.5583 10.5813 60.7449 9.928C60.7449 9.928 60.8383 9.90933 61.0249 9.872C61.2116 9.83467 61.3983 9.816 61.5849 9.816C61.7903 9.816 61.9583 9.844 62.0889 9.9C62.2383 9.956 62.3129 10.0773 62.3129 10.264C62.3129 10.3573 62.3036 10.432 62.2849 10.488C62.1916 10.8053 62.0516 11.3467 61.8649 12.112C61.6783 12.8773 61.4636 13.7827 61.2209 14.828C60.9783 15.8733 60.7169 16.9653 60.4369 18.104C60.1756 19.2427 59.9143 20.3533 59.6529 21.436C59.3916 22.5187 59.1489 23.48 58.9249 24.32L59.0929 24.46C59.4103 24.7213 59.6249 24.9547 59.7369 25.16C59.8489 25.3467 59.9049 25.4867 59.9049 25.58C59.9049 25.7107 59.8116 25.776 59.6249 25.776C59.3823 25.776 59.0463 25.6827 58.6169 25.496C58.5049 25.888 58.4023 26.196 58.3089 26.42C58.2156 26.644 58.1783 26.756 58.1969 26.756C58.1783 26.7747 58.1409 26.784 58.0849 26.784C57.9543 26.784 57.8889 26.6347 57.8889 26.336C57.8889 26.1867 57.9076 26.0093 57.9449 25.804C57.9823 25.5987 58.0103 25.3747 58.0289 25.132C57.0209 24.4787 56.0783 23.7133 55.2009 22.836C54.3423 21.94 53.5023 20.9693 52.6809 19.924C52.1023 19.1773 51.6076 18.5613 51.1969 18.076C50.8049 17.572 50.4316 17.124 50.0769 16.732C49.7409 16.3213 49.3769 15.8827 48.9849 15.416C48.5929 16.3307 48.1636 17.292 47.6969 18.3C47.2489 19.308 46.8103 20.2973 46.3809 21.268C45.9703 22.22 45.6343 23.1067 45.3729 23.928C45.1116 24.7307 44.9809 25.4027 44.9809 25.944C44.9809 26.0373 44.9809 26.1213 44.9809 26.196C44.9996 26.2893 45.0183 26.3733 45.0369 26.448C45.0556 26.5227 45.0649 26.588 45.0649 26.644C45.0836 26.7187 45.0929 26.7747 45.0929 26.812ZM66.5543 26.644C65.8076 26.644 65.1076 26.504 64.4543 26.224C63.8009 25.9627 63.2689 25.5427 62.8583 24.964C62.5223 24.4787 62.2889 24.012 62.1583 23.564C62.0276 23.0973 61.9623 22.6587 61.9623 22.248C61.9623 21.856 62.0089 21.5013 62.1023 21.184C62.1956 20.848 62.3076 20.5773 62.4383 20.372C62.8303 19.7 63.2409 19.14 63.6703 18.692C64.1183 18.244 64.6036 17.8427 65.1263 17.488C65.8169 17.04 66.6663 16.816 67.6743 16.816C68.0476 16.816 68.4396 16.9653 68.8503 17.264C69.2609 17.5627 69.8583 17.8707 70.6423 18.188C71.1649 18.3933 71.6503 18.636 72.0983 18.916C72.5649 19.1773 72.9383 19.448 73.2183 19.728C73.5169 19.9893 73.6663 20.2413 73.6663 20.484C73.6663 20.7453 73.4516 20.96 73.0223 21.128C72.4063 21.3333 71.6783 21.52 70.8383 21.688C69.9983 21.8373 69.1583 21.9587 68.3183 22.052C67.4969 22.1453 66.7689 22.192 66.1343 22.192C65.6489 22.192 65.2756 22.164 65.0143 22.108C64.9023 22.5187 64.8463 22.948 64.8463 23.396C64.8463 23.7693 64.9023 24.1427 65.0143 24.516C65.1263 24.8893 65.3129 25.2347 65.5743 25.552C65.7609 25.7573 65.9663 25.9067 66.1903 26C66.4329 26.0747 66.6756 26.112 66.9183 26.112C67.3289 26.112 67.7303 26.0467 68.1223 25.916C68.5329 25.7667 68.8876 25.6173 69.1863 25.468C69.4849 25.3 69.6716 25.188 69.7463 25.132C70.1196 24.908 70.3996 24.74 70.5863 24.628C70.7916 24.516 70.9876 24.46 71.1743 24.46C71.5103 24.46 71.6783 24.5347 71.6783 24.684C71.6783 24.7773 71.5849 24.9173 71.3983 25.104C71.2116 25.272 70.8849 25.468 70.4183 25.692C69.8209 25.9907 69.1863 26.224 68.5143 26.392C67.8609 26.56 67.2076 26.644 66.5543 26.644ZM66.7783 21.268C67.3756 21.268 68.0756 21.24 68.8783 21.184C69.6809 21.1093 70.5489 20.988 71.4823 20.82C72.0049 20.708 72.2663 20.5493 72.2663 20.344C72.2663 20.176 72.1449 19.9987 71.9023 19.812C71.6783 19.6067 71.3889 19.42 71.0343 19.252C70.6983 19.084 70.3623 18.944 70.0263 18.832C69.7089 18.7013 69.4663 18.636 69.2983 18.636C68.4956 18.636 67.8049 18.804 67.2263 19.14C66.6663 19.476 66.1809 19.9147 65.7703 20.456C65.6396 20.624 65.4996 20.8667 65.3503 21.184C65.6676 21.24 66.1436 21.268 66.7783 21.268ZM76.8887 26.224C76.8887 26.2613 76.758 26.2333 76.4967 26.14C76.254 26.0467 75.9647 25.9253 75.6287 25.776C75.3114 25.608 75.022 25.4307 74.7607 25.244C74.518 25.0573 74.3967 24.88 74.3967 24.712C74.3594 24.1147 74.3874 23.424 74.4807 22.64C74.574 21.8373 74.7047 21.0533 74.8727 20.288C75.0594 19.504 75.2367 18.8507 75.4047 18.328C75.5167 18.0107 75.7314 17.74 76.0487 17.516C76.366 17.292 76.7114 17.124 77.0847 17.012C77.4767 16.8813 77.8314 16.816 78.1487 16.816C78.41 16.816 78.6247 16.8627 78.7927 16.956C78.9607 17.0307 79.0447 17.152 79.0447 17.32C79.0447 17.4507 78.9794 17.6093 78.8487 17.796C78.6807 18.0387 78.466 18.4307 78.2047 18.972C77.962 19.5133 77.7194 20.1107 77.4767 20.764C77.2527 21.3987 77.0567 21.996 76.8887 22.556C76.7394 23.0973 76.6647 23.508 76.6647 23.788C76.6647 24.0307 76.73 24.124 76.8607 24.068C76.898 24.068 76.9914 23.9653 77.1407 23.76C77.29 23.5547 77.374 23.424 77.3927 23.368C78.27 22.36 79.0727 21.492 79.8007 20.764C80.5474 20.0173 81.3034 19.4013 82.0687 18.916C82.8527 18.412 83.7487 18.02 84.7567 17.74C85.018 17.6653 85.1954 17.7773 85.2887 18.076C85.4007 18.356 85.466 18.748 85.4847 19.252C85.5034 19.7373 85.5127 20.2787 85.5127 20.876C85.5314 21.4547 85.578 22.024 85.6527 22.584C85.746 23.1253 85.9047 23.5827 86.1287 23.956C86.3527 24.3107 86.6887 24.516 87.1367 24.572C87.454 24.6093 87.8274 24.5347 88.2567 24.348C88.686 24.1613 89.1154 23.8813 89.5447 23.508C89.974 23.1347 90.3287 22.696 90.6087 22.192C90.8887 21.688 91.0287 21.1467 91.0287 20.568C91.0287 20.2693 90.9914 19.9707 90.9167 19.672C90.842 19.3733 90.7114 19.0747 90.5247 18.776C90.4314 18.5707 90.3287 18.4587 90.2167 18.44C90.1234 18.4027 90.0207 18.3933 89.9087 18.412C89.8154 18.412 89.7127 18.3653 89.6007 18.272C89.3767 18.104 89.4327 17.964 89.7687 17.852C90.1047 17.74 90.506 17.684 90.9727 17.684C91.3274 17.684 91.6727 17.7213 92.0087 17.796C92.3447 17.8707 92.5874 18.0013 92.7367 18.188C92.9047 18.3747 93.054 18.6733 93.1847 19.084C93.3154 19.4947 93.3807 19.952 93.3807 20.456C93.3807 20.96 93.2874 21.492 93.1007 22.052C92.9327 22.5933 92.6247 23.0973 92.1767 23.564C91.7474 24.0307 91.15 24.432 90.3847 24.768C89.638 25.0853 88.6767 25.272 87.5007 25.328C86.8474 25.3653 86.306 25.244 85.8767 24.964C85.4474 24.6653 85.102 24.2733 84.8407 23.788C84.5794 23.3027 84.374 22.7893 84.2247 22.248C84.0754 21.688 83.954 21.1653 83.8607 20.68C83.7674 20.1947 83.6834 19.8027 83.6087 19.504C83.534 19.1867 83.4314 19.0467 83.3007 19.084C82.834 19.196 82.3207 19.4947 81.7607 19.98C81.2007 20.4467 80.6314 21.0347 80.0527 21.744C79.4927 22.4347 78.9327 23.172 78.3727 23.956C77.8314 24.74 77.3367 25.496 76.8887 26.224ZM98.3503 26.336C97.8276 26.336 97.2863 26.2987 96.7263 26.224C96.1849 26.168 95.7276 26.056 95.3543 25.888C94.9996 25.7013 94.8222 25.4493 94.8222 25.132C94.8222 24.964 94.8876 24.8333 95.0183 24.74C95.1676 24.628 95.3356 24.572 95.5223 24.572C95.6156 24.572 95.7743 24.5907 95.9983 24.628C96.2223 24.6653 96.3809 24.6933 96.4743 24.712C97.0343 24.768 97.7343 24.796 98.5743 24.796C99.3023 24.796 100.021 24.768 100.73 24.712C101.44 24.656 102.028 24.572 102.494 24.46C102.98 24.348 103.222 24.208 103.222 24.04C103.222 23.8907 103.073 23.7413 102.774 23.592C102.476 23.424 102.196 23.284 101.934 23.172C101.43 22.9293 100.87 22.6867 100.254 22.444C99.6383 22.2013 99.0689 21.9867 98.5463 21.8C98.0423 21.5947 97.7063 21.4547 97.5383 21.38C96.9596 21.1187 96.4556 20.8387 96.0263 20.54C95.5969 20.2413 95.3823 19.9147 95.3823 19.56C95.3823 19.28 95.5783 18.916 95.9703 18.468C96.4369 17.964 97.0156 17.5533 97.7063 17.236C98.4156 16.9 99.1716 16.648 99.9743 16.48C100.796 16.312 101.598 16.228 102.382 16.228C102.98 16.228 103.54 16.2747 104.062 16.368C104.604 16.4613 105.07 16.6013 105.462 16.788C105.724 16.9187 105.957 17.0867 106.162 17.292C106.386 17.4787 106.498 17.6467 106.498 17.796C106.498 17.908 106.442 17.992 106.33 18.048C106.237 18.104 106.116 18.132 105.966 18.132C105.892 18.132 105.817 18.132 105.742 18.132C105.686 18.1133 105.63 18.0947 105.574 18.076C105.182 17.9267 104.781 17.8053 104.37 17.712C103.96 17.6187 103.54 17.572 103.11 17.572C102.532 17.572 101.906 17.7027 101.234 17.964C100.581 18.2067 100.021 18.524 99.5543 18.916C99.1063 19.308 98.8823 19.7093 98.8823 20.12C98.8823 20.3253 98.9663 20.5493 99.1343 20.792C99.3023 21.016 99.5916 21.2587 100.002 21.52C100.693 21.9307 101.393 22.276 102.102 22.556C102.812 22.8173 103.4 23.0693 103.866 23.312C104.576 23.704 104.93 24.1427 104.93 24.628C104.93 24.9827 104.706 25.272 104.258 25.496C103.81 25.72 103.241 25.888 102.55 26C101.86 26.1307 101.132 26.2147 100.366 26.252C99.6196 26.308 98.9476 26.336 98.3503 26.336Z" fill="black"/>
</svg>
